<svg xmlns="http://www.w3.org/2000/svg" viewBox="0 0 600.38 33.33"><defs><style>.cls-1{fill:#ff7352;}.cls-2,.cls-3,.cls-4{fill:none;stroke:#2b2b2b;stroke-miterlimit:10;stroke-width:0.75px;}.cls-3{stroke-dasharray:0.92 0.92;}.cls-4{stroke-dasharray:2.04 2.04;}</style></defs><title>Plan de travail 7 copie 6</title><g id="Calque_2" data-name="Calque 2"><polygon class="cls-1" points="237.15 20.33 228.46 20.33 219.76 20.33 211.07 20.33 202.37 20.33 193.67 20.33 184.98 20.33 176.28 20.33 167.59 20.33 158.89 20.33 150.2 20.33 141.5 20.33 132.81 20.33 124.11 20.33 115.41 20.33 106.72 20.33 98.02 20.33 89.33 20.33 80.63 20.33 71.94 20.33 63.24 20.33 54.54 20.33 45.85 20.33 37.15 20.33 28.46 20.33 19.76 20.33 11.07 20.33 0.38 20.33 0.38 33.33 11.07 33.33 19.76 33.33 28.46 33.33 37.15 33.33 45.85 33.33 54.54 33.33 63.24 33.33 71.94 33.33 80.63 33.33 89.33 33.33 98.02 33.33 106.72 33.33 115.41 33.33 124.11 33.33 132.81 33.33 141.5 33.33 150.2 33.33 158.89 33.33 167.59 33.33 176.28 33.33 184.98 33.33 193.67 33.33 202.37 33.33 211.07 33.33 219.76 33.33 228.46 33.33 237.15 33.33 240.38 33.33 240.38 20.33 237.15 20.33"/><polygon class="cls-1" points="280.63 20.33 271.94 20.33 263.24 20.33 254.54 20.33 245.85 20.33 240.38 20.33 240.38 33.33 245.85 33.33 254.54 33.33 263.24 33.33 271.94 33.33 280.63 33.33 284.38 33.33 284.38 20.33 280.63 20.33"/><polygon class="cls-1" points="332.81 20.33 324.11 20.33 315.41 20.33 306.72 20.33 298.02 20.33 289.33 20.33 284.38 20.33 284.38 33.33 289.33 33.33 298.02 33.33 306.72 33.33 315.41 33.33 324.11 33.33 332.81 33.33 337.38 33.33 337.38 20.33 332.81 20.33"/><polygon class="cls-1" points="350.2 20.33 341.5 20.33 337.38 20.33 337.38 33.33 341.5 33.33 350.2 33.33 354.38 33.33 354.38 20.33 350.2 20.33"/><polygon class="cls-1" points="463.24 20.33 454.54 20.33 445.85 20.33 437.15 20.33 428.46 20.33 419.76 20.33 411.07 20.33 402.37 20.33 393.67 20.33 384.98 20.33 376.28 20.33 367.59 20.33 358.89 20.33 354.38 20.33 354.38 33.33 358.89 33.33 367.59 33.33 376.28 33.33 384.98 33.33 393.67 33.33 402.37 33.33 411.07 33.33 419.76 33.33 428.46 33.33 437.15 33.33 445.85 33.33 454.54 33.33 463.24 33.33 468.38 33.33 468.38 20.33 463.24 20.33"/><polygon class="cls-1" points="550.2 20.33 541.5 20.33 532.8 20.33 524.11 20.33 515.41 20.33 506.72 20.33 498.02 20.33 489.33 20.33 480.63 20.33 471.94 20.33 468.38 20.33 468.38 33.33 471.94 33.33 480.63 33.33 489.33 33.33 498.02 33.33 506.72 33.33 515.41 33.33 524.11 33.33 532.8 33.33 541.5 33.33 550.2 33.33 555.38 33.33 555.38 20.33 550.2 20.33"/><polygon class="cls-1" points="593.67 20.33 584.98 20.33 576.28 20.33 567.59 20.33 558.89 20.33 555.38 20.33 555.38 33.33 558.89 33.33 567.59 33.33 576.28 33.33 584.98 33.33 593.67 33.33 600.38 33.33 600.38 20.33 593.67 20.33"/></g><g id="Calque_3" data-name="Calque 3"><line class="cls-2" x1="239.77" y1="20.33" x2="239.77" y2="20.83"/><line class="cls-3" x1="239.77" y1="21.76" x2="239.77" y2="32.37"/><line class="cls-2" x1="239.77" y1="32.83" x2="239.77" y2="33.33"/><line class="cls-2" x1="284.38" y1="20.33" x2="284.38" y2="20.83"/><line class="cls-3" x1="284.38" y1="21.76" x2="284.38" y2="32.37"/><line class="cls-2" x1="284.38" y1="32.83" x2="284.38" y2="33.33"/><line class="cls-2" x1="336.79" y1="20.33" x2="336.79" y2="20.83"/><line class="cls-3" x1="336.79" y1="21.76" x2="336.79" y2="32.37"/><line class="cls-2" x1="336.79" y1="32.83" x2="336.79" y2="33.33"/><line class="cls-2" x1="354.17" y1="20.33" x2="354.17" y2="20.83"/><line class="cls-3" x1="354.17" y1="21.76" x2="354.17" y2="32.37"/><line class="cls-2" x1="354.17" y1="32.83" x2="354.17" y2="33.33"/><line class="cls-2" x1="467.59" y1="20.33" x2="467.59" y2="20.83"/><line class="cls-3" x1="467.59" y1="21.76" x2="467.59" y2="32.37"/><line class="cls-2" x1="467.59" y1="32.83" x2="467.59" y2="33.33"/><line class="cls-2" x1="554.54" y1="20.33" x2="554.54" y2="20.83"/><line class="cls-3" x1="554.54" y1="21.76" x2="554.54" y2="32.37"/><line class="cls-2" x1="554.54" y1="32.83" x2="554.54" y2="33.33"/><line class="cls-2" x1="239.77" x2="239.77" y2="1"/><line class="cls-4" x1="239.77" y1="3.04" x2="239.77" y2="18.31"/><line class="cls-2" x1="239.77" y1="19.33" x2="239.77" y2="20.33"/><line class="cls-2" x1="0.38" y1="20.33" x2="0.38" y2="20.83"/><line class="cls-3" x1="0.38" y1="21.76" x2="0.38" y2="32.37"/><line class="cls-2" x1="0.38" y1="32.83" x2="0.38" y2="33.33"/><line class="cls-2" x1="0.38" x2="0.38" y2="1"/><line class="cls-4" x1="0.38" y1="3.04" x2="0.38" y2="18.31"/><line class="cls-2" x1="0.38" y1="19.33" x2="0.38" y2="20.33"/><line class="cls-2" x1="284.38" x2="284.38" y2="1"/><line class="cls-4" x1="284.38" y1="3.04" x2="284.38" y2="18.31"/><line class="cls-2" x1="284.38" y1="19.33" x2="284.38" y2="20.33"/><line class="cls-2" x1="336.79" x2="336.79" y2="1"/><line class="cls-4" x1="336.79" y1="3.04" x2="336.79" y2="18.31"/><line class="cls-2" x1="336.79" y1="19.33" x2="336.79" y2="20.33"/><line class="cls-2" x1="354.17" x2="354.17" y2="1"/><line class="cls-4" x1="354.17" y1="3.04" x2="354.17" y2="18.31"/><line class="cls-2" x1="354.17" y1="19.33" x2="354.17" y2="20.33"/><line class="cls-2" x1="467.59" x2="467.59" y2="1"/><line class="cls-4" x1="467.59" y1="3.04" x2="467.59" y2="18.31"/><line class="cls-2" x1="467.59" y1="19.33" x2="467.59" y2="20.33"/><line class="cls-2" x1="554.54" x2="554.54" y2="1"/><line class="cls-4" x1="554.54" y1="3.04" x2="554.54" y2="18.31"/><line class="cls-2" x1="554.54" y1="19.33" x2="554.54" y2="20.33"/></g></svg>