<svg xmlns="http://www.w3.org/2000/svg" viewBox="0 0 600 17"><defs><style>.cls-1{fill:#ff7352;}.cls-2{fill:none;stroke:#fff;stroke-miterlimit:10;stroke-width:3px;}</style></defs><title>Plan de travail 7 copie 2</title><g id="Calque_2" data-name="Calque 2"><polygon class="cls-1" points="236.78 0 228.08 0 219.39 0 210.69 0 202 0 193.3 0 184.6 0 175.91 0 167.21 0 158.52 0 149.82 0 141.13 0 132.43 0 123.73 0 115.04 0 106.34 0 97.65 0 88.95 0 80.26 0 71.56 0 62.87 0 54.17 0 45.47 0 36.78 0 28.08 0 19.39 0 10.69 0 0 0 0 17 10.69 17 19.39 17 28.08 17 36.78 17 45.47 17 54.17 17 62.87 17 71.56 17 80.26 17 88.95 17 97.65 17 106.34 17 115.04 17 123.73 17 132.43 17 141.13 17 149.82 17 158.52 17 167.21 17 175.91 17 184.6 17 193.3 17 202 17 210.69 17 219.39 17 228.08 17 236.78 17 240 17 240 0 236.78 0"/><polygon class="cls-1" points="280.26 0 271.56 0 262.87 0 254.17 0 245.47 0 240 0 240 17 245.47 17 254.17 17 262.87 17 271.56 17 280.26 17 284 17 284 0 280.26 0"/><polygon class="cls-1" points="332.43 0 323.73 0 315.04 0 306.34 0 297.65 0 288.95 0 284 0 284 17 288.95 17 297.65 17 306.34 17 315.04 17 323.73 17 332.43 17 337 17 337 0 332.43 0"/><polygon class="cls-1" points="349.82 0 341.13 0 337 0 337 17 341.13 17 349.82 17 354 17 354 0 349.82 0"/><polygon class="cls-1" points="462.87 0 454.17 0 445.47 0 436.78 0 428.08 0 419.39 0 410.69 0 402 0 393.3 0 384.6 0 375.91 0 367.21 0 358.52 0 354 0 354 17 358.52 17 367.21 17 375.91 17 384.6 17 393.3 17 402 17 410.69 17 419.39 17 428.08 17 436.78 17 445.47 17 454.17 17 462.87 17 468 17 468 0 462.87 0"/><polygon class="cls-1" points="549.82 0 541.13 0 532.43 0 523.73 0 515.04 0 506.34 0 497.65 0 488.95 0 480.26 0 471.56 0 468 0 468 17 471.56 17 480.26 17 488.95 17 497.65 17 506.34 17 515.04 17 523.73 17 532.43 17 541.13 17 549.82 17 555 17 555 0 549.82 0"/><polygon class="cls-1" points="593.3 0 584.6 0 575.91 0 567.21 0 558.52 0 555 0 555 17 558.52 17 567.21 17 575.91 17 584.6 17 593.3 17 600 17 600 0 593.3 0"/></g><g id="Calque_3" data-name="Calque 3"><line class="cls-2" x1="239.4" y1="-10.14" x2="239.4" y2="28.87"/><line class="cls-2" x1="284" y1="-10.14" x2="284" y2="28.87"/><line class="cls-2" x1="336.42" y1="-10.14" x2="336.42" y2="28.87"/><line class="cls-2" x1="353.79" y1="-10.14" x2="353.79" y2="28.87"/><line class="cls-2" x1="467.21" y1="-10.14" x2="467.21" y2="28.87"/><line class="cls-2" x1="554.17" y1="-10.14" x2="554.17" y2="28.87"/></g></svg>